<?xml version="1.0" encoding="UTF-8"?>
<svg width="88px" height="88px" viewBox="0 0 88 88" xmlns="http://www.w3.org/2000/svg" xmlns:xlink="http://www.w3.org/1999/xlink" version="1.1">
 <!-- Generated by Pixelmator Pro 1.5.1 -->
 <path id="Path" d="M78.953 69.768 C90.666 54.062 90.46 32.246 78.298 16.779 L80.784 14.293 C81.91 13.164 81.913 11.335 80.784 10.206 L76.698 6.119 C75.57 4.989 73.739 4.99 72.607 6.119 L70.003 8.724 C62.52 3.139 53.506 0.077 44.002 0.077 34.491 0.077 25.478 3.141 17.996 8.724 L15.36 6.09 C14.233 4.96 12.4 4.96 11.271 6.09 L7.186 10.177 C6.058 11.305 6.058 13.135 7.186 14.263 L9.702 16.779 C-2.449 32.229 -2.665 54.012 9.012 69.718 L6.633 72.093 C5.506 73.223 5.506 75.056 6.633 76.179 L10.723 80.274 C11.848 81.394 13.681 81.394 14.809 80.274 L17.062 78.02 C24.719 84.054 34.097 87.356 44.002 87.356 53.879 87.356 63.244 84.065 70.89 78.053 L72.551 79.713 C73.678 80.841 75.51 80.841 76.64 79.713 L80.725 75.626 C81.855 74.499 81.851 72.666 80.725 71.54 Z M44.002 5.616 C52.023 5.616 59.647 8.114 66.046 12.681 L57.826 20.899 C53.698 18.384 48.959 17.012 44.002 17.012 39.042 17.012 34.303 18.384 30.171 20.899 L21.952 12.681 C28.354 8.114 35.977 5.616 44.002 5.616 Z M55.883 62.854 C52.343 65.055 48.27 66.256 43.998 66.256 39.624 66.256 35.444 65.003 31.849 62.693 32.14 61.71 31.936 60.61 31.16 59.834 L27.072 55.746 C26.376 55.051 25.416 54.836 24.513 55 20.294 47.698 20.48 38.534 25.111 31.417 26.017 31.586 26.982 31.376 27.683 30.673 L31.771 26.585 C32.397 25.959 32.637 25.12 32.571 24.303 36.001 22.276 39.912 21.169 44.003 21.169 48.1 21.169 52.017 22.278 55.452 24.316 55.4 25.118 55.646 25.939 56.263 26.551 L60.349 30.64 C61.038 31.328 61.984 31.544 62.875 31.391 67.462 38.424 67.708 47.466 63.647 54.724 62.57 54.199 61.246 54.352 60.348 55.249 L56.262 59.336 C55.302 60.296 55.209 61.743 55.883 62.854 Z M12.972 65.757 C3.395 52.287 3.625 33.975 13.66 20.739 L21.805 28.885 C16.051 37.495 15.86 48.733 21.19 57.54 Z M44.002 81.813 C35.581 81.813 27.604 79.064 21.02 74.063 L29.162 65.917 C33.518 68.839 38.64 70.412 43.999 70.412 49.342 70.412 54.444 68.852 58.792 65.952 L66.937 74.099 C60.357 79.081 52.397 81.813 44.002 81.813 Z M74.994 65.809 L66.775 57.589 C72.135 48.777 71.96 37.515 66.193 28.884 L74.339 20.735 C84.385 33.989 84.604 52.332 74.994 65.809 Z" fill="#ffffff" fill-opacity="1" stroke="none"/>
</svg>
